<!-- icon666.com - MILLIONS vector ICONS FREE --><svg id="Capa_1" enable-background="new 0 0 60 60" viewBox="0 0 60 60" xmlns="http://www.w3.org/2000/svg"><circle id="Oval" cx="30" cy="30" fill="#3486de" r="29" style="fill: rgb(255, 255, 255);"></circle><circle cx="30" cy="30" fill="#dbdfe5" r="24" style="fill: rgb(255, 255, 255);"></circle><path id="Path" d="m18.49 25.58c-1.07-4.47-1.58-13.58 11.51-13.58s12.57 9.11 11.51 13.58l-1.51 2.42h-20z" fill="#826856" style="fill: rgb(39, 38, 39);"></path><path d="m25 39.19v3.81c0 2.761 2.239 5 5 5s5-2.239 5-5v-3.81z" fill="#cea484"></path><path d="m44.52 49.11c-8.582 6.521-20.458 6.521-29.04 0 1.238-3.651 4.664-6.109 8.52-6.11h1c0 2.761 2.239 5 5 5s5-2.239 5-5h1c3.856.001 7.282 2.459 8.52 6.11z" fill="#477594" style="fill: rgb(102, 194, 255);"></path><path d="m41.537 28.528c-.154.317-.3.6-.4.847-.245.556-.366 1.159-.357 1.766.01.582-.2 1.755-1.991 1.755-.008 1.308-.283 2.601-.806 3.8-.643 1.225-2.869 2.46-3.686 2.888-.19.087-.357.217-.49.378-.925 1.186-2.307 1.926-3.807 2.038-1.501-.109-2.886-.851-3.808-2.041-.133-.161-.3-.291-.49-.378-.817-.428-3.043-1.663-3.686-2.888-.519-1.2-.791-2.493-.8-3.8-1.8 0-2.011-1.173-1.991-1.755.001-.608-.124-1.209-.367-1.766-.1-.245-.245-.53-.4-.847-1.286-2.429.348-3.97 1.95-3.235 0 0 .654-5.593 3.227-7.175.35-.218.809-.129 1.051.205.536.727 1.935 1.68 5.314 1.68s4.778-.953 5.309-1.677c.242-.334.701-.423 1.051-.205 2.328 1.429 3.084 6.165 3.206 7.032v.01c.004.045.011.089.021.133 1.602-.735 3.236.807 1.95 3.235z" fill="#e4b994"></path><g fill="#373737"><path d="m30 0c-13.488 0-25.318 9-28.914 22s1.924 26.801 13.493 33.734 26.343 5.293 36.11-4.009c.378-.385.383-1 .011-1.39s-.986-.416-1.389-.058c-10.748 10.23-27.614 10.289-38.434.135s-11.83-26.99-2.301-38.365 26.28-13.334 38.174-4.462 14.793 25.487 6.606 37.862c-.198.298-.221.679-.062.999s.477.531.834.553.698-.148.896-.446c6.095-9.212 6.634-21.028 1.404-30.757s-15.382-15.797-26.428-15.796z" fill="#373737"></path><path id="Shape" d="m45.177 49.835c7.575-5.773 11.211-15.349 9.376-24.694s-8.822-16.836-18.017-19.316-19.001.482-25.286 7.638c-.366.414-.326 1.046.088 1.412s1.046.326 1.412-.088c5.69-6.458 14.51-9.198 22.857-7.1s14.824 8.682 16.784 17.063-.925 17.155-7.476 22.737c-1.696-3.366-5.145-5.489-8.915-5.487v-2.236c1.154-.619 2.139-1.512 2.867-2.6.5-1.059.797-2.202.876-3.37.496-.108.95-.356 1.309-.714.5-.531.762-1.243.728-1.971-.005-.464.091-.924.282-1.348.074-.176.171-.376.277-.594l.09-.186c.696-1.094.756-2.477.156-3.627.556-2.616.941-7.033-1.635-10.291-2.131-2.697-5.814-4.063-10.95-4.063s-8.83 1.369-10.96 4.07c-2.576 3.266-2.186 7.673-1.626 10.283-.6 1.143-.543 2.519.148 3.609l.1.2c.106.218.2.418.278.6.189.423.288.88.291 1.343-.096 1.281.777 2.434 2.037 2.688.078 1.165.371 2.306.864 3.365.728 1.09 1.713 1.985 2.868 2.604v2.238c-3.77-.002-7.219 2.121-8.916 5.487-8.326-7.089-10.505-19.062-5.21-28.63.266-.482.092-1.089-.389-1.357-.483-.268-1.091-.093-1.359.389-5.997 10.833-3.155 24.423 6.679 31.946 1.651 1.267 7.319 5.29 15.565 5.165 7.781-.118 13.105-3.858 14.807-5.165zm-19.177-8.619c1.052 1.09 2.486 1.729 4 1.784 1.516-.054 2.951-.697 4-1.792v1.792c0 2.209-1.791 4-4 4s-4-1.791-4-4zm-5.39-24.907c1.732-2.196 4.89-3.309 9.39-3.309s7.649 1.11 9.381 3.3c1.851 2.342 1.774 5.576 1.4 7.846-.123-.021-.247-.034-.371-.038-.367-1.936-1.324-5.494-3.532-6.849-.793-.483-1.824-.278-2.372.471-.222.299-1.191 1.27-4.506 1.27s-4.284-.971-4.5-1.266c-.55-.756-1.59-.959-2.384-.467-2.248 1.381-3.187 5-3.53 6.842-.123.004-.245.017-.366.039-.38-2.265-.461-5.492 1.39-7.839zm2.29 19.92c-.441-1.055-.672-2.186-.68-3.329 0-.552-.448-1-1-1-.3.032-.602-.048-.847-.224-.11-.148-.162-.332-.144-.516.004-.745-.148-1.482-.445-2.165-.086-.208-.2-.443-.324-.7l-.112-.231c-.488-.919-.387-1.536-.153-1.785.108-.11.258-.171.412-.166.136 0 .27.03.393.087.291.133.628.119.907-.037.279-.157.466-.438.503-.756.163-1.383.947-5.137 2.6-6.337.759.917 2.408 1.93 5.99 1.93s5.229-1.011 5.99-1.927c1.391 1.017 2.255 3.919 2.58 6.177v.016c.008.094.024.188.047.28.088.281.289.513.555.639.262.121.562.126.828.015.254-.154.578-.124.8.073.234.249.335.866-.153 1.785l-.017.035-.095.2c-.125.257-.238.492-.323.7-.3.683-.449 1.423-.436 2.169.013.186-.043.37-.155.519-.243.172-.54.251-.836.22-.552 0-1 .448-1 1-.009 1.146-.244 2.279-.692 3.333-.867 1.061-1.974 1.9-3.229 2.449-.319.148-.6.365-.825.635-.738.956-1.837 1.565-3.039 1.682-1.199-.114-2.296-.72-3.032-1.673-.217-.266-.49-.482-.8-.632-1.27-.551-2.39-1.396-3.268-2.466zm12.712 8.881c.019-.052.234-.742.289-1.043.005-.023.014-.044.018-.067h.081c3.158-.001 6.019 1.859 7.3 4.745-1.626 1.163-6.339 4.212-13.102 4.271-7.006.062-11.899-3.123-13.504-4.271 1.282-2.888 4.146-4.749 7.306-4.745h.083c0 .023.013.044.018.067.055.301.27.987.289 1.043.861 2.32 3.06 3.881 5.515 3.92 2.523.04 4.821-1.535 5.707-3.92z" fill="#373737"></path></g></svg>