<!-- icon666.com - MILLIONS vector ICONS FREE --><svg id="Capa_1" enable-background="new 0 0 60 60" viewBox="0 0 60 60" xmlns="http://www.w3.org/2000/svg"><circle id="Oval" cx="30" cy="30" fill="#3486de" r="29" style="fill: rgb(250, 252, 255);"></circle><circle cx="30" cy="30" fill="#dbdfe5" r="24" style="fill: rgb(255, 255, 255);"></circle><path id="Path" d="m34 43h4c1.657 0 3-1.343 3-3v-17c0-6.075-4.925-11-11-11s-11 4.925-11 11v17c0 1.657 1.343 3 3 3z" fill="#685243" style="fill: rgb(0, 0, 0);"></path><path d="m43.47 49.86c-8.132 5.52-18.808 5.52-26.94 0 1.56-4.57 5.25-6.86 8.52-6.86h.95c0 2.209 1.791 4 4 4s4-1.791 4-4h.95c3.27 0 6.96 2.29 8.52 6.86z" fill="#b098ee" style="fill: rgb(251, 0, 255);"></path><path d="m26 39.35v3.65c0 2.209 1.791 4 4 4s4-1.791 4-4v-3.65z" fill="#826856" style="fill: rgb(193, 134, 92);"></path><path d="m40.58 28.27c-.137.264-.26.534-.37.81-.224.531-.337 1.103-.33 1.68.01.56-.18 1.68-1.82 1.68 0 0-.73 1.9-1.46 3.35-.331.606-.705 1.188-1.12 1.74-.988 1.397-2.174 2.644-3.52 3.7-.08.07-.17.14-.25.2-1.013.76-2.407.76-3.42 0-.08-.06-.16-.13-.25-.2-1.346-1.056-2.532-2.303-3.52-3.7-.411-.555-.786-1.136-1.12-1.74-.72-1.45-1.45-3.35-1.45-3.35-1.65 0-1.83-1.12-1.82-1.68.003-.577-.113-1.149-.34-1.68-.11-.276-.233-.546-.37-.81-1.17-2.33.33-3.8 1.8-3.09 1.117-.076 2.215-.318 3.26-.72 2.302-.801 4.253-2.378 5.52-4.46 3 5 8.78 5.19 8.78 5.19 1.47-.73 2.98.75 1.8 3.08z" fill="#a0806c" style="fill: rgb(193, 134, 92);"></path><g fill="#373737"><path d="m30 0c-13.488 0-25.318 9-28.914 22s1.924 26.801 13.493 33.734 26.343 5.293 36.11-4.009c.378-.385.383-1 .011-1.39s-.986-.416-1.389-.058c-10.748 10.23-27.614 10.289-38.434.135s-11.83-26.99-2.301-38.365 26.28-13.334 38.174-4.462 14.793 25.487 6.606 37.862c-.198.298-.221.679-.062.999s.477.531.834.553.698-.148.896-.446c6.095-9.212 6.634-21.028 1.404-30.757s-15.382-15.797-26.428-15.796z" fill="#373737"></path><path id="Shape" d="m44.032 50.69c.014-.01.022-.024.036-.034 8.014-5.444 12.161-15.028 10.643-24.596-1.517-9.568-8.426-17.399-17.731-20.096s-19.331.225-25.73 7.499c-.366.414-.326 1.046.088 1.412s1.046.326 1.412-.088c5.793-6.573 14.818-9.282 23.274-6.987s14.872 9.195 16.548 17.795-1.682 17.404-8.658 22.705c-.864-1.95-2.272-3.608-4.056-4.777 1.313-.686 2.138-2.042 2.142-3.523v-17c0-6.627-5.373-12-12-12s-12 5.373-12 12v17c.005 1.48.83 2.836 2.142 3.521-1.784 1.169-3.192 2.829-4.056 4.779-9.097-6.908-11.743-19.448-6.212-29.443.266-.482.092-1.089-.389-1.357-.483-.268-1.091-.093-1.359.389-6.254 11.299-2.87 25.502 7.807 32.767.013.01.021.024.035.034 1.786 1.24 6.736 4.325 13.782 4.397 7.347.075 12.518-3.173 14.282-4.397zm-4.032-23.931c-.028.371-.135.731-.312 1.058-.168.337-.312.639-.406.89-.275.653-.411 1.356-.4 2.065.013.173-.034.346-.135.488-.2.139-.443.201-.685.175-.414 0-.786.255-.934.642-.007.019-.72 1.869-1.425 3.27-.306.557-.652 1.092-1.034 1.6-.943 1.332-2.076 2.52-3.361 3.526-.062.052-.131.107-.194.153-.658.497-1.567.497-2.225 0l-.234-.187c-1.271-.997-2.389-2.174-3.321-3.493-.38-.51-.726-1.045-1.036-1.6-.691-1.39-1.405-3.244-1.412-3.263-.148-.387-.52-.642-.934-.642-.243.025-.486-.037-.688-.174-.1-.143-.146-.316-.132-.49.008-.702-.128-1.399-.4-2.047-.1-.268-.245-.57-.414-.909-.42-.838-.367-1.46-.127-1.7.073-.077.175-.121.282-.121.109.004.215.031.312.08.146.063.303.097.462.1 1.224-.079 2.429-.342 3.574-.78 2.029-.718 3.821-1.981 5.179-3.65 2.191 2.608 5.35 4.211 8.748 4.439.166.012.332-.023.479-.1.182-.121.422-.109.592.029.137.169.201.385.181.602zm-13 14.9c.143.119.282.247.429.36l.263.209c1.366 1.03 3.249 1.03 4.615 0 .1-.074.209-.16.266-.211.146-.114.284-.24.427-.359v1.342c0 1.657-1.343 3-3 3s-3-1.343-3-3zm11 .341h-3v-2.28c.459-.513.89-1.049 1.293-1.607.447-.593.849-1.219 1.2-1.873.5-.994.992-2.171 1.27-2.86.458-.082.885-.285 1.237-.589v7.209c0 1.105-.895 2-2 2zm-8-29c2.653-.002 5.197 1.051 7.073 2.927s2.929 4.42 2.927 7.073v1.051c-.466-.086-.946-.043-1.389.124-3.166-.296-6.022-2.024-7.754-4.69-.194-.282-.515-.451-.857-.451s-.663.169-.857.451c-1.154 1.885-2.925 3.311-5.012 4.038-.883.332-1.805.548-2.743.643-.444-.163-.924-.202-1.388-.114v-1.052c.006-5.52 4.48-9.994 10-10zm-10 19.788c.354.307.785.512 1.246.593.277.688.768 1.865 1.264 2.863.358.648.759 1.272 1.2 1.867.402.558.832 1.096 1.29 1.609v2.28h-3c-1.105 0-2-.895-2-2zm14.615 12.087c.122-.282.217-.575.285-.875h.055c2.559 0 5.718 1.694 7.3 5.455-1.723 1.089-6.147 3.563-12.309 3.545-6.083-.018-10.449-2.454-12.175-3.545 1.561-3.761 4.72-5.455 7.279-5.455h.055c.066.3.159.593.279.875.871 1.839 2.743 2.997 4.754 2.942 1.915-.052 3.65-1.193 4.477-2.942z" fill="#373737"></path></g></svg>